<?xml version="1.0" encoding="iso-8859-1"?>
<!-- Generator: Adobe Illustrator 22.0.1, SVG Export Plug-In . SVG Version: 6.00 Build 0)  -->
<svg version="1.1" id="&#x56FE;&#x5C42;_1" xmlns="http://www.w3.org/2000/svg" xmlns:xlink="http://www.w3.org/1999/xlink" x="0px"
	 y="0px" viewBox="0 0 700 700" style="enable-background:new 0 0 700 700;" xml:space="preserve">
<g>
	<g>
		<defs>
			<rect id="SVGID_1_" x="16.92" y="17.4" width="666" height="666"/>
		</defs>
		<clipPath id="SVGID_2_">
			<use xlink:href="#SVGID_1_"  style="overflow:visible;"/>
		</clipPath>
		<path style="clip-path:url(#SVGID_2_);" d="M207.281,575.504c-7.851,0-15.771-3.938-22.092-11.959L16.823,350.076l177.715-225.333
			c13.712-17.325,34.74-15.664,46.951,3.938c12.211,19.602,10.98,49.596-2.76,67.012L116.977,350.076l112.4,142.47
			c13.743,17.421,14.975,47.415,2.761,67.012C225.584,570.141,216.433,575.504,207.281,575.504L207.281,575.504z M504.92,575.408
			l177.715-225.332l-168.366-213.47c-13.743-17.417-34.773-15.661-46.948,3.937c-12.215,19.602-10.983,49.597,2.76,67.013
			l112.4,142.52L460.732,504.413c-13.743,17.416-14.974,47.41-2.764,67.013c6.556,10.582,15.704,15.945,24.856,15.945
			C490.678,587.371,498.596,583.433,504.92,575.408L504.92,575.408z M349.262,642.66l66.55-569.505
			c3.028-25.866-9.218-50.307-27.354-54.625c-18.198-4.367-35.302,13.144-38.263,39.01l-66.55,569.506
			c-3.028,25.866,9.219,50.307,27.354,54.624c1.863,0.426,3.659,0.616,5.49,0.616C332.46,682.287,346.568,665.821,349.262,642.66
			L349.262,642.66z M349.262,642.66"/>
	</g>
</g>
</svg>
