<?xml version="1.0" encoding="iso-8859-1"?>
<!-- Generator: Adobe Illustrator 22.0.1, SVG Export Plug-In . SVG Version: 6.00 Build 0)  -->
<svg version="1.1" id="&#x56FE;&#x5C42;_1" xmlns="http://www.w3.org/2000/svg" xmlns:xlink="http://www.w3.org/1999/xlink" x="0px"
	 y="0px" viewBox="0 0 700 700" style="enable-background:new 0 0 700 700;" xml:space="preserve">
<g>
	<g>
		<path d="M580.122,17.582H119.045c-56.591,0-102.463,45.872-102.463,102.464v461.077c0,56.588,45.872,102.46,102.463,102.46
			h461.077c56.587,0,102.46-45.872,102.46-102.46V120.046C682.582,63.454,636.71,17.582,580.122,17.582L580.122,17.582z
			 M170.275,68.812h358.617v256.157c0,28.293-22.939,51.229-51.234,51.229H221.505c-28.294,0-51.23-22.936-51.23-51.229V68.812z
			 M631.352,581.122c0,28.294-22.936,51.23-51.229,51.23H119.045c-28.293,0-51.233-22.936-51.233-51.23V120.046
			c0-28.294,22.939-51.234,51.233-51.234v307.387c0,28.294,22.936,51.23,51.23,51.23h358.617c28.294,0,51.23-22.936,51.23-51.23
			V68.812c28.293,0,51.229,22.939,51.229,51.234V581.122z M452.045,324.969c14.146,0,25.613-11.472,25.613-25.617V145.659
			c0-14.146-11.468-25.614-25.613-25.614c-14.148,0-25.616,11.468-25.616,25.614v153.693
			C426.429,313.498,437.897,324.969,452.045,324.969L452.045,324.969z M452.045,324.969"/>
	</g>
</g>
</svg>
