<?xml version="1.0" encoding="iso-8859-1"?>
<!-- Generator: Adobe Illustrator 22.0.1, SVG Export Plug-In . SVG Version: 6.00 Build 0)  -->
<svg version="1.1" id="&#x56FE;&#x5C42;_1" xmlns="http://www.w3.org/2000/svg" xmlns:xlink="http://www.w3.org/1999/xlink" x="0px"
	 y="0px" viewBox="0 0 700 700" style="enable-background:new 0 0 700 700;" xml:space="preserve">
<g>
	<g>
		<defs>
			<rect id="SVGID_1_" x="16.92" y="17.36" width="666" height="666"/>
		</defs>
		<clipPath id="SVGID_2_">
			<use xlink:href="#SVGID_1_"  style="overflow:visible;"/>
		</clipPath>
		<path style="clip-path:url(#SVGID_2_);" d="M86.872,350.167c0-144.919,117.617-262.411,262.692-262.411v78.724
			c0,14.502,11.766,26.24,26.268,26.24c14.518,0,36.48-26.24,36.48-26.24L559.713,17.782H349.564
			c-183.76,0-332.742,148.822-332.742,332.385c0,87.329,33.976,166.541,89.121,225.862l49.528-49.472
			C113.001,479.934,86.872,418.182,86.872,350.167L86.872,350.167z M86.872,350.167"/>
	</g>
	<path d="M593.181,124.302l-49.525,49.471c42.484,46.623,68.597,108.374,68.597,176.394c0,144.919-117.613,262.407-262.688,262.407
		V533.85c0-14.483-11.77-26.24-26.272-26.24c-14.518,0-36.477,26.24-36.477,26.24L139.412,682.548h210.153
		c183.776,0,332.738-148.818,332.738-332.381C682.302,262.837,648.329,183.622,593.181,124.302L593.181,124.302z M593.181,124.302"
		/>
</g>
</svg>
