<?xml version="1.0" encoding="iso-8859-1"?>
<!-- Generator: Adobe Illustrator 22.0.1, SVG Export Plug-In . SVG Version: 6.00 Build 0)  -->
<svg version="1.1" id="&#x56FE;&#x5C42;_1" xmlns="http://www.w3.org/2000/svg" xmlns:xlink="http://www.w3.org/1999/xlink" x="0px"
	 y="0px" viewBox="0 0 700 700" style="enable-background:new 0 0 700 700;" xml:space="preserve">
<g>
	<g>
		<defs>
			<rect id="SVGID_1_" x="17" y="17.48" width="666" height="666"/>
		</defs>
		<clipPath id="SVGID_2_">
			<use xlink:href="#SVGID_1_"  style="overflow:visible;"/>
		</clipPath>
		<path style="clip-path:url(#SVGID_2_);" d="M650.596,432.112H48.844c-12.923,0-24.516,7.494-29.417,19.394
			c-4.905,11.898-2.227,25.121,6.687,33.936L215.998,673.19c12.481,12.341,32.542,12.341,44.575,0
			c12.481-12.341,12.481-32.171,0-44.07L124.621,494.696h525.527c17.387,0,31.649-14.101,31.649-31.292
			C682.244,446.217,667.981,432.112,650.596,432.112L650.596,432.112z M48.844,237.751h601.752c12.927,0,24.515-7.49,29.42-19.393
			c1.781-3.964,2.228-7.931,2.228-11.899c0-7.931-3.12-16.308-9.361-22.036L514.647,27.523c-12.481-12.339-32.54-12.339-44.575,0
			c-12.481,12.341-12.481,32.176,0,44.074l104.305,103.128H48.844c-17.382,0-31.644,14.105-31.644,31.292
			C17.2,223.209,31.462,237.751,48.844,237.751L48.844,237.751z M48.844,237.751"/>
	</g>
</g>
</svg>
