<?xml version="1.0" encoding="iso-8859-1"?>
<!-- Generator: Adobe Illustrator 22.0.2, SVG Export Plug-In . SVG Version: 6.00 Build 0)  -->
<svg version="1.1" id="&#x56FE;&#x5C42;_1" xmlns="http://www.w3.org/2000/svg" xmlns:xlink="http://www.w3.org/1999/xlink" x="0px"
	 y="0px" viewBox="0 0 1366 768" style="enable-background:new 0 0 1366 768;" xml:space="preserve">
<g>
	<path d="M828.126,717.068H520.735c-73.847,0-99.183-13.478-99.183-96.966V293.943c0-11.126,9.177-20.15,20.494-20.15
		s20.491,9.024,20.491,20.15v326.159c0,52.949-1.36,56.67,58.198,56.67H828.13c57.566,0,64.758-1.595,64.758-56.67V293.943
		c0-11.126,9.177-20.15,20.494-20.15s20.491,9.024,20.491,20.15v326.159C933.874,697.115,907.739,717.068,828.126,717.068
		L828.126,717.068z M828.126,717.068"/>
	<path d="M821.163,183.128c-11.317,0-20.491-9.023-20.491-20.15v-6.297c0-58.218-11.069-64.221-64.762-64.221H612.951
		c-55.984,0-58.194,7.801-58.194,64.221v6.297c0,11.127-9.177,20.15-20.494,20.15s-20.494-9.023-20.494-20.15v-6.297
		c0-78.143,20.894-104.518,99.183-104.518H735.91c85.212,0,105.744,33.705,105.744,104.518v6.297
		C841.658,174.106,832.48,183.128,821.163,183.128L821.163,183.128z M821.163,183.128"/>
	<path d="M554.757,616.326c-5.666,0-10.249-4.524-10.249-10.077v-20.146c0-5.567,4.583-10.073,10.249-10.073
		c5.662,0,10.245,4.503,10.245,10.073v20.146C565.002,611.802,560.419,616.326,554.757,616.326L554.757,616.326z M554.757,616.326"
		/>
	<path d="M554.757,545.808c-5.666,0-10.249-4.525-10.249-10.077V364.462c0-5.563,4.583-10.073,10.249-10.073
		c5.662,0,10.245,4.51,10.245,10.073v171.269C565.002,541.283,560.419,545.808,554.757,545.808L554.757,545.808z M554.757,545.808"
		/>
	<path d="M677.712,616.326c-5.662,0-10.245-4.524-10.245-10.077V364.462c0-5.563,4.583-10.073,10.245-10.073
		c5.663,0,10.245,4.51,10.245,10.073v241.787C687.958,611.802,683.375,616.326,677.712,616.326L677.712,616.326z M677.712,616.326"
		/>
	<g>
		<defs>
			<rect id="SVGID_1_" x="349.94" y="51.96" width="666" height="666"/>
		</defs>
		<clipPath id="SVGID_2_">
			<use xlink:href="#SVGID_1_"  style="overflow:visible;"/>
		</clipPath>
		<path style="clip-path:url(#SVGID_2_);" d="M800.672,616.326c-5.666,0-10.249-4.524-10.249-10.077V364.462
			c0-5.563,4.583-10.073,10.249-10.073c5.663,0,10.245,4.51,10.245,10.073v241.787C810.917,611.802,806.335,616.326,800.672,616.326
			L800.672,616.326z M800.672,616.326"/>
		<path style="clip-path:url(#SVGID_2_);" d="M1015.847,230.98c0,45.9-37.844,83.114-84.535,83.114H434.359
			c-46.689,0-84.532-37.215-84.532-83.114v-5.036c0-45.9,37.844-83.11,84.532-83.11h496.954c46.687,0,84.535,37.211,84.535,83.11
			V230.98z M974.859,225.943c0-23.646-19.49-42.815-43.546-42.815H434.359c-24.054,0-43.547,19.169-43.547,42.815v5.036
			c0,23.646,19.493,42.818,43.547,42.818h496.954c24.057,0,43.546-19.172,43.546-42.818V225.943z M974.859,225.943"/>
	</g>
</g>
</svg>
