<?xml version="1.0" encoding="iso-8859-1"?>
<!-- Generator: Adobe Illustrator 22.0.1, SVG Export Plug-In . SVG Version: 6.00 Build 0)  -->
<svg version="1.1" id="&#x56FE;&#x5C42;_1" xmlns="http://www.w3.org/2000/svg" xmlns:xlink="http://www.w3.org/1999/xlink" x="0px"
	 y="0px" viewBox="0 0 700 700" style="enable-background:new 0 0 700 700;" xml:space="preserve">
<g>
	<g>
		<path d="M347.887,683.568c-15.673,0-31.342-21.674-31.342-31.524V382.095H48.186c-9.795,0-31.342-13.79-31.342-31.524
			c0-17.735,21.547-31.529,31.342-31.529h270.319V49.096c0-9.853,13.708-31.528,31.339-31.528c15.673,0,31.342,21.674,31.342,31.528
			v271.919h270.318c9.792,0,31.34,13.79,31.34,31.524c0,17.734-21.548,31.528-31.34,31.528H379.226v271.918
			C379.226,661.894,363.556,683.568,347.887,683.568L347.887,683.568z M347.887,683.568"/>
	</g>
</g>
</svg>
