<?xml version="1.0" encoding="iso-8859-1"?>
<!-- Generator: Adobe Illustrator 22.0.1, SVG Export Plug-In . SVG Version: 6.00 Build 0)  -->
<svg version="1.1" id="&#x56FE;&#x5C42;_1" xmlns="http://www.w3.org/2000/svg" xmlns:xlink="http://www.w3.org/1999/xlink" x="0px"
	 y="0px" viewBox="0 0 700 700" style="enable-background:new 0 0 700 700;" xml:space="preserve">
<g>
	<g>
		<defs>
			<rect id="SVGID_1_" x="16.48" y="17.92" width="666" height="666"/>
		</defs>
		<clipPath id="SVGID_2_">
			<use xlink:href="#SVGID_1_"  style="overflow:visible;"/>
		</clipPath>
		<path style="clip-path:url(#SVGID_2_);" d="M665.742,237.954L388.448,30.166c-21.659-16.23-56.775-16.234-78.432,0L32.721,237.954
			c-21.652,16.229-21.652,42.538,0,58.771c21.657,16.229,56.773,16.229,78.432,0l182.623-136.85v481.48
			c0,22.948,24.829,41.558,55.459,41.558c30.625,0,55.458-18.61,55.458-41.558v-481.48l182.618,136.846
			c10.828,8.115,25.027,12.174,39.219,12.174c14.192,0,28.384-4.059,39.212-12.17C687.4,280.492,687.4,254.183,665.742,237.954
			L665.742,237.954z M665.742,237.954"/>
	</g>
</g>
</svg>
