<?xml version="1.0" encoding="iso-8859-1"?>
<!-- Generator: Adobe Illustrator 22.0.1, SVG Export Plug-In . SVG Version: 6.00 Build 0)  -->
<svg version="1.1" id="&#x56FE;&#x5C42;_1" xmlns="http://www.w3.org/2000/svg" xmlns:xlink="http://www.w3.org/1999/xlink" x="0px"
	 y="0px" viewBox="0 0 700 700" style="enable-background:new 0 0 700 700;" xml:space="preserve">
<g>
	<g>
		<defs>
			<rect id="SVGID_1_" x="16.44" y="17.92" width="666" height="666"/>
		</defs>
		<clipPath id="SVGID_2_">
			<use xlink:href="#SVGID_1_"  style="overflow:visible;"/>
		</clipPath>
		<path style="clip-path:url(#SVGID_2_);" d="M32.673,462.929l277.156,207.867c21.649,16.236,56.744,16.236,78.389,0
			l277.156-207.867c21.648-16.232,21.648-42.554,0-58.791c-21.644-16.236-56.74-16.236-78.39,0L404.456,541.037V59.376
			c0-22.958-24.815-41.574-55.43-41.574c-30.616,0-55.43,18.616-55.43,41.574v481.661L111.063,404.142
			c-10.82-8.118-25.007-12.179-39.192-12.179c-14.186,0-28.373,4.057-39.198,12.175C11.031,420.375,11.031,446.697,32.673,462.929
			L32.673,462.929z M32.673,462.929"/>
	</g>
</g>
</svg>
