<?xml version="1.0" encoding="iso-8859-1"?>
<!-- Generator: Adobe Illustrator 22.0.2, SVG Export Plug-In . SVG Version: 6.00 Build 0)  -->
<svg version="1.1" id="&#x56FE;&#x5C42;_1" xmlns="http://www.w3.org/2000/svg" xmlns:xlink="http://www.w3.org/1999/xlink" x="0px"
	 y="0px" viewBox="0 0 1366 768" style="enable-background:new 0 0 1366 768;" xml:space="preserve">
<g>
	<g>
		<defs>
			<rect id="SVGID_1_" x="349.94" y="51.44" width="666" height="666"/>
		</defs>
		<clipPath id="SVGID_2_">
			<use xlink:href="#SVGID_1_"  style="overflow:visible;"/>
		</clipPath>
		<path style="clip-path:url(#SVGID_2_);" d="M807.456,176.469H433.035c-45.95,0-83.206,37.201-83.206,83.089v373.9
			c0,45.885,37.257,83.089,83.206,83.089h374.422c45.95,0,83.206-37.204,83.206-83.089v-373.9
			C890.663,213.67,853.406,176.469,807.456,176.469L807.456,176.469z M849.059,633.459c0,22.925-18.646,41.545-41.603,41.545
			H433.035c-22.935,0-41.603-18.62-41.603-41.545v-373.9c0-22.925,18.668-41.545,41.603-41.545h374.422
			c22.957,0,41.603,18.62,41.603,41.545V633.459z M849.059,633.459"/>
	</g>
	<rect x="474.637" y="301.104" width="291.216" height="41.545"/>
	<rect x="474.637" y="384.189" width="291.216" height="41.545"/>
	<rect x="474.637" y="467.279" width="291.216" height="41.545"/>
	<rect x="474.637" y="550.369" width="166.412" height="41.545"/>
	<path d="M932.266,51.834H557.843c-45.953,0-83.206,37.205-83.206,83.09h41.603c0-22.925,18.668-41.545,41.603-41.545h374.423
		c22.956,0,41.602,18.62,41.602,41.545v373.9c0,22.924-18.646,41.544-41.602,41.544v41.545c45.949,0,83.205-37.205,83.205-83.089
		v-373.9C1015.471,89.039,978.214,51.834,932.266,51.834L932.266,51.834z M932.266,51.834"/>
</g>
</svg>
