<?xml version="1.0" encoding="iso-8859-1"?>
<!-- Generator: Adobe Illustrator 22.0.1, SVG Export Plug-In . SVG Version: 6.00 Build 0)  -->
<svg version="1.1" id="&#x56FE;&#x5C42;_1" xmlns="http://www.w3.org/2000/svg" xmlns:xlink="http://www.w3.org/1999/xlink" x="0px"
	 y="0px" viewBox="0 0 700 700" style="enable-background:new 0 0 700 700;" xml:space="preserve">
<g>
	<path d="M579.681,683.599H118.636c-56.544,0-102.476-38.827-102.476-86.63V337.266c0-47.74,45.936-86.567,102.476-86.567h26.587
		c-2.724-10.795-4.188-21.916-4.188-33.298v-33.301c0-91.966,93.168-166.501,208.126-166.501
		c114.917,0,208.127,74.535,208.127,166.501v33.301c0,11.379-1.468,22.503-4.188,33.298h26.583
		c56.502,0,102.479,38.829,102.479,86.567v259.703C682.16,644.773,636.183,683.599,579.681,683.599L579.681,683.599z
		 M307.536,474.693v75.706c0,18.34,18.658,33.301,41.624,33.301s41.625-14.961,41.625-33.301v-75.706
		c25.241-11.445,42.435-32.777,42.435-57.493c0-36.814-37.642-66.598-84.06-66.598c-46.463,0-84.104,29.785-84.104,66.598
		C265.056,441.916,282.29,463.248,307.536,474.693L307.536,474.693z M474.034,184.101c0-55.185-55.89-99.903-124.874-99.903
		c-68.981,0-124.877,44.714-124.877,99.903v66.598h249.751V184.101z M474.034,184.101"/>
</g>
</svg>
