<?xml version="1.0" encoding="iso-8859-1"?>
<!-- Generator: Adobe Illustrator 22.0.2, SVG Export Plug-In . SVG Version: 6.00 Build 0)  -->
<svg version="1.1" id="&#x56FE;&#x5C42;_1" xmlns="http://www.w3.org/2000/svg" xmlns:xlink="http://www.w3.org/1999/xlink" x="0px"
	 y="0px" viewBox="0 0 1366 768" style="enable-background:new 0 0 1366 768;" xml:space="preserve">
<g>
	<g>
		<defs>
			<rect id="SVGID_1_" x="349.44" y="51.36" width="666" height="666"/>
		</defs>
		<clipPath id="SVGID_2_">
			<use xlink:href="#SVGID_1_"  style="overflow:visible;"/>
		</clipPath>
		<path style="clip-path:url(#SVGID_2_);" d="M682.568,716.548c47.502,0,92.536-10.463,133.868-28.313
			c0.62-0.615,1.853-1.849,2.468-1.849c19.126-9.231,37.015-18.464,53.672-27.698h70.325c15.424,0,27.761-12.309,27.761-27.698
			v-80.017c9.255-19.697,20.358-41.24,27.764-62.785c11.103-32.621,16.654-68.323,16.654-104.022
			c0-137.877-83.898-256.058-204.194-306.532c-38.867-16.619-83.284-25.85-128.318-25.85
			C498.113,51.167,349.44,200.125,349.44,384.167C349.44,567.594,498.732,716.548,682.568,716.548L682.568,716.548z M651.107,558.36
			c0-17.235,14.188-31.391,31.462-31.391c17.893,0,31.461,14.156,31.461,31.391c0,17.234-14.188,31.391-31.461,31.391
			C665.295,589.75,651.107,575.594,651.107,558.36L651.107,558.36z M709.713,419.25c-1.849,2.463-2.466,7.385-2.466,11.697
			c-0.619,3.075,0,16.002,0,19.08c0,16.619-12.955,29.546-28.996,29.546c-14.188,0-26.528-10.464-28.993-25.239
			c0-1.845-0.62-7.385-0.62-11.078c0-9.849,0-29.543,0.62-38.777c0-3.078,1.232-8.619,1.849-10.464
			c3.701-15.39,15.424-27.698,30.845-32.624c3.701-1.844,14.188-4.307,17.89-5.538c19.741-7.389,32.697-26.468,32.697-48.011
			c0-27.702-22.211-50.473-49.97-50.473c-25.909,0-46.267,19.697-49.968,44.317c0,2.46-2.468,18.465-3.085,20.927
			c-3.701,12.309-14.188,20.312-26.528,20.312c-9.255,0-17.889-4.926-22.826-12.926c-5.551-7.386-8.019-16.62-8.636-25.854
			c0-6.153,1.849-15.387,1.849-17.234c9.255-52.934,54.905-92.943,109.193-92.943c61.074,0,111.045,50.473,111.045,112.64
			c-1.236,51.089-33.314,93.562-77.731,107.719C714.649,414.942,710.328,417.405,709.713,419.25L709.713,419.25z M709.713,419.25"/>
	</g>
</g>
</svg>
