<?xml version="1.0" encoding="iso-8859-1"?>
<!-- Generator: Adobe Illustrator 22.0.1, SVG Export Plug-In . SVG Version: 6.00 Build 0)  -->
<svg version="1.1" id="&#x56FE;&#x5C42;_1" xmlns="http://www.w3.org/2000/svg" xmlns:xlink="http://www.w3.org/1999/xlink" x="0px"
	 y="0px" viewBox="0 0 700 700" style="enable-background:new 0 0 700 700;" xml:space="preserve">
<g>
	<g>
		<path d="M672.174,623.97L524.503,476.093c-3.202-3.211-6.877-5.657-10.804-7.346c37.568-47.477,59.992-107.474,59.992-172.705
			c0-153.881-124.774-278.613-278.669-278.613c-153.899,0-278.669,124.736-278.669,278.617
			c0,153.867,124.777,278.613,278.673,278.613c65.304,0,125.365-22.47,172.877-60.088c1.69,3.908,4.121,7.576,7.311,10.773
			l147.668,147.873c13.576,13.609,35.653,13.609,49.261,0.04C685.75,659.68,685.75,637.608,672.174,623.97L672.174,623.97z
			 M295.025,505.004c-115.422,0-209.004-93.558-209.004-208.955c0-115.4,93.582-208.959,209.004-208.959
			c115.418,0,209,93.562,209,208.959C504.028,411.439,410.443,505.004,295.025,505.004L295.025,505.004z M295.025,505.004"/>
	</g>
</g>
</svg>
