<?xml version="1.0" encoding="iso-8859-1"?>
<!-- Generator: Adobe Illustrator 22.0.1, SVG Export Plug-In . SVG Version: 6.00 Build 0)  -->
<svg version="1.1" id="&#x56FE;&#x5C42;_1" xmlns="http://www.w3.org/2000/svg" xmlns:xlink="http://www.w3.org/1999/xlink" x="0px"
	 y="0px" viewBox="0 0 700 700" style="enable-background:new 0 0 700 700;" xml:space="preserve">
<g>
	<path d="M640.005,16.801H471.303v666h168.702c23.413,0,42.395-19.712,42.395-44.026V60.827
		C682.401,36.512,663.418,16.801,640.005,16.801L640.005,16.801z M600.358,366.811h-74.33c-8.725,0-15.795-7.615-15.795-17.01
		c0-9.397,7.07-17.01,15.795-17.01h74.33c8.722,0,15.795,7.614,15.795,17.01C616.153,359.197,609.079,366.811,600.358,366.811
		L600.358,366.811z M600.452,264.347h-74.33c-8.725,0-15.795-7.614-15.795-17.01c0-9.392,7.07-17.01,15.795-17.01h74.33
		c8.721,0,15.795,7.619,15.795,17.01C616.248,256.733,609.173,264.347,600.452,264.347L600.452,264.347z M600.542,161.888h-74.33
		c-8.722,0-15.795-7.618-15.795-17.01c0-9.393,7.071-17.01,15.795-17.01h74.33c8.725,0,15.795,7.618,15.795,17.01
		C616.338,154.27,609.268,161.888,600.542,161.888L600.542,161.888z M257.23,16.801v666h182.505v-666H257.23z M386.378,366.811
		h-74.33c-8.722,0-15.795-7.615-15.795-17.01c0-9.397,7.071-17.01,15.795-17.01h74.33c8.725,0,15.795,7.614,15.795,17.01
		C402.174,359.197,395.104,366.811,386.378,366.811L386.378,366.811z M386.473,264.347h-74.33c-8.722,0-15.795-7.614-15.795-17.01
		c0-9.392,7.073-17.01,15.795-17.01h74.33c8.725,0,15.795,7.619,15.795,17.01C402.268,256.733,395.198,264.347,386.473,264.347
		L386.473,264.347z M386.567,161.888h-74.33c-8.725,0-15.795-7.618-15.795-17.01c0-9.393,7.071-17.01,15.795-17.01h74.33
		c8.722,0,15.795,7.618,15.795,17.01C402.358,154.27,395.289,161.888,386.567,161.888L386.567,161.888z M58.796,16.801
		c-23.413,0-42.395,19.711-42.395,44.026v577.947c0,24.315,18.982,44.026,42.395,44.026h166.87v-666H58.796z M173.292,366.811
		h-74.33c-8.724,0-15.795-7.615-15.795-17.01c0-9.397,7.071-17.01,15.795-17.01h74.33c8.722,0,15.795,7.614,15.795,17.01
		C189.087,359.197,182.014,366.811,173.292,366.811L173.292,366.811z M173.383,264.347H99.057c-8.725,0-15.795-7.614-15.795-17.01
		c0-9.392,7.07-17.01,15.795-17.01h74.327c8.725,0,15.799,7.619,15.799,17.01C189.182,256.733,182.109,264.347,173.383,264.347
		L173.383,264.347z M173.478,161.888h-74.33c-8.722,0-15.795-7.618-15.795-17.01c0-9.393,7.07-17.01,15.795-17.01h74.33
		c8.725,0,15.795,7.618,15.795,17.01C189.273,154.27,182.203,161.888,173.478,161.888L173.478,161.888z M173.478,161.888"/>
</g>
</svg>
