<?xml version="1.0" encoding="iso-8859-1"?>
<!-- Generator: Adobe Illustrator 22.0.2, SVG Export Plug-In . SVG Version: 6.00 Build 0)  -->
<svg version="1.1" id="&#x56FE;&#x5C42;_1" xmlns="http://www.w3.org/2000/svg" xmlns:xlink="http://www.w3.org/1999/xlink" x="0px"
	 y="0px" viewBox="0 0 1366 768" style="enable-background:new 0 0 1366 768;" xml:space="preserve">
<g>
	<path d="M973.005,50.801H804.303v666h168.702c23.413,0,42.395-19.712,42.395-44.026V94.827
		C1015.401,70.512,996.418,50.801,973.005,50.801L973.005,50.801z M933.358,400.811h-74.33c-8.725,0-15.795-7.615-15.795-17.01
		c0-9.397,7.07-17.01,15.795-17.01h74.33c8.722,0,15.795,7.614,15.795,17.01C949.153,393.197,942.079,400.811,933.358,400.811
		L933.358,400.811z M933.452,298.347h-74.33c-8.725,0-15.795-7.614-15.795-17.01c0-9.392,7.07-17.01,15.795-17.01h74.33
		c8.721,0,15.795,7.619,15.795,17.01C949.248,290.733,942.173,298.347,933.452,298.347L933.452,298.347z M933.542,195.888h-74.33
		c-8.722,0-15.795-7.618-15.795-17.01c0-9.393,7.071-17.01,15.795-17.01h74.33c8.725,0,15.795,7.618,15.795,17.01
		C949.338,188.27,942.268,195.888,933.542,195.888L933.542,195.888z M590.23,50.801v666h182.505v-666H590.23z M719.378,400.811
		h-74.33c-8.722,0-15.795-7.615-15.795-17.01c0-9.397,7.071-17.01,15.795-17.01h74.33c8.725,0,15.795,7.614,15.795,17.01
		C735.174,393.197,728.104,400.811,719.378,400.811L719.378,400.811z M719.473,298.347h-74.33c-8.722,0-15.795-7.614-15.795-17.01
		c0-9.392,7.073-17.01,15.795-17.01h74.33c8.725,0,15.795,7.619,15.795,17.01C735.268,290.733,728.198,298.347,719.473,298.347
		L719.473,298.347z M719.567,195.888h-74.33c-8.724,0-15.795-7.618-15.795-17.01c0-9.393,7.071-17.01,15.795-17.01h74.33
		c8.722,0,15.795,7.618,15.795,17.01C735.359,188.27,728.289,195.888,719.567,195.888L719.567,195.888z M391.796,50.801
		c-23.413,0-42.395,19.711-42.395,44.026v577.947c0,24.315,18.982,44.026,42.395,44.026h166.87v-666H391.796z M506.292,400.811
		h-74.33c-8.724,0-15.795-7.615-15.795-17.01c0-9.397,7.071-17.01,15.795-17.01h74.33c8.722,0,15.795,7.614,15.795,17.01
		C522.087,393.197,515.014,400.811,506.292,400.811L506.292,400.811z M506.383,298.347h-74.327c-8.725,0-15.795-7.614-15.795-17.01
		c0-9.392,7.07-17.01,15.795-17.01h74.327c8.725,0,15.799,7.619,15.799,17.01C522.182,290.733,515.109,298.347,506.383,298.347
		L506.383,298.347z M506.478,195.888h-74.33c-8.722,0-15.795-7.618-15.795-17.01c0-9.393,7.07-17.01,15.795-17.01h74.33
		c8.725,0,15.795,7.618,15.795,17.01C522.273,188.27,515.203,195.888,506.478,195.888L506.478,195.888z M506.478,195.888"/>
</g>
</svg>
