<?xml version="1.0" encoding="iso-8859-1"?>
<!-- Generator: Adobe Illustrator 22.0.1, SVG Export Plug-In . SVG Version: 6.00 Build 0)  -->
<svg version="1.1" id="&#x56FE;&#x5C42;_1" xmlns="http://www.w3.org/2000/svg" xmlns:xlink="http://www.w3.org/1999/xlink" x="0px"
	 y="0px" viewBox="0 0 700 700" style="enable-background:new 0 0 700 700;" xml:space="preserve">
<g>
	<g>
		<defs>
			<rect id="SVGID_1_" x="16.94" y="17.96" width="666" height="666"/>
		</defs>
		<clipPath id="SVGID_2_">
			<use xlink:href="#SVGID_1_"  style="overflow:visible;"/>
		</clipPath>
		<path style="clip-path:url(#SVGID_2_);" d="M349.554,18.406c-183.004,0-332.736,49.854-332.736,120.483v423.775
			c0,69.245,149.732,120.486,332.736,120.486c183.003,0,332.735-49.858,332.735-120.486V138.889
			C682.289,68.26,532.557,18.406,349.554,18.406L349.554,18.406z M349.554,46.106c166.368,0,299.464,44.313,299.464,92.784
			c0,47.087-133.096,92.787-299.464,92.787s-299.46-44.313-299.46-92.787C50.094,90.419,183.186,46.106,349.554,46.106
			L349.554,46.106z M649.019,562.664c0,47.087-133.096,92.787-299.464,92.787s-299.46-44.317-299.46-92.787v-88.631
			c53.234,40.16,168.029,66.472,299.46,66.472c131.43,0,246.226-26.312,299.464-66.472V562.664z M349.554,514.193
			c-166.368,0-299.46-44.317-299.46-92.788v-88.63c53.234,40.16,168.029,66.472,299.46,66.472
			c131.43,0,246.226-26.312,299.464-66.472v88.63C649.019,468.492,515.922,514.193,349.554,514.193L349.554,514.193z
			 M349.554,372.935c-166.368,0-299.46-44.317-299.46-92.788v-88.63c53.234,40.159,168.029,66.471,299.46,66.471
			c131.43,0,246.226-26.312,299.464-66.471v88.63C649.019,327.234,515.922,372.935,349.554,372.935L349.554,372.935z
			 M349.554,372.935"/>
	</g>
	<path d="M560.843,278.764c0,9.179,8.937,16.618,19.963,16.618c11.026,0,19.963-7.439,19.963-16.618
		c0-9.18-8.937-16.619-19.963-16.619C569.78,262.146,560.843,269.585,560.843,278.764L560.843,278.764z M560.843,278.764"/>
	<path d="M560.843,418.635c0,9.179,8.937,16.621,19.963,16.621c11.026,0,19.963-7.443,19.963-16.621
		c0-9.175-8.937-16.618-19.963-16.618C569.78,402.017,560.843,409.46,560.843,418.635L560.843,418.635z M560.843,418.635"/>
	<path d="M560.843,559.893c0,9.18,8.937,16.618,19.963,16.618c11.026,0,19.963-7.438,19.963-16.618
		c0-9.175-8.937-16.618-19.963-16.618C569.78,543.275,560.843,550.718,560.843,559.893L560.843,559.893z M560.843,559.893"/>
</g>
</svg>
