<?xml version="1.0" encoding="iso-8859-1"?>
<!-- Generator: Adobe Illustrator 22.0.1, SVG Export Plug-In . SVG Version: 6.00 Build 0)  -->
<svg version="1.1" id="&#x56FE;&#x5C42;_1" xmlns="http://www.w3.org/2000/svg" xmlns:xlink="http://www.w3.org/1999/xlink" x="0px"
	 y="0px" viewBox="0 0 700 700" style="enable-background:new 0 0 700 700;" xml:space="preserve">
<g>
	<g>
		<defs>
			<rect id="SVGID_1_" x="16.94" y="17.4" width="666" height="666"/>
		</defs>
		<clipPath id="SVGID_2_">
			<use xlink:href="#SVGID_1_"  style="overflow:visible;"/>
		</clipPath>
		<path style="clip-path:url(#SVGID_2_);" d="M609.67,634.57c0,26.445-18.664,47.804-41.625,47.804H48.03l72.823-394.496
			c0-26.416,18.549-47.824,41.509-47.824h478.505c22.964,0,41.549,21.408,41.549,47.824L609.67,634.57z M131.2,204.171h468.043
			v-46.96c0-26.417-18.664-47.825-41.588-47.825H308.056V66.048c0-26.375-18.628-47.804-41.588-47.804H58.417
			c-22.967,0-41.588,21.429-41.588,47.804V634.57l72.75-382.553C89.579,225.596,108.24,204.171,131.2,204.171L131.2,204.171z
			 M131.2,204.171"/>
	</g>
</g>
</svg>
