<?xml version="1.0" encoding="iso-8859-1"?>
<!-- Generator: Adobe Illustrator 22.0.1, SVG Export Plug-In . SVG Version: 6.00 Build 0)  -->
<svg version="1.1" id="&#x56FE;&#x5C42;_1" xmlns="http://www.w3.org/2000/svg" xmlns:xlink="http://www.w3.org/1999/xlink" x="0px"
	 y="0px" viewBox="0 0 700 700" style="enable-background:new 0 0 700 700;" xml:space="preserve">
<path style="stroke:#000000;stroke-miterlimit:10;" d="M-0.5-0.5l700,700v-700H-0.5z M515.329,119.821
	c-6.327,1.376-14.343,2.122-20.795,4.939c2.003,2.2,2.291,5.926-1.01,7.557c-1.254,0.619-2.506,1.196-3.759,1.731
	c-0.204,2.344-1.798,4.673-4.764,4.951c-2.646,0.248-4.712,0.557-7.329-0.179c-0.88-0.247-1.607-0.735-2.181-1.353
	c-2.215,0.046-4.481-0.148-6.819-0.647c-4.082-0.871-5.016-7.293-1.194-9.139c4.251-2.053,8.652-3.662,13.1-5.163
	c0.232-0.363,0.521-0.718,0.888-1.056c8.332-7.66,20.595-8.979,31.206-11.286C518.955,108.812,521.615,118.455,515.329,119.821z"/>
<path style="stroke:#000000;stroke-miterlimit:10;" d="M-0.5-0.5h700H-0.5z"/>
<path style="fill:none;stroke:#000000;stroke-miterlimit:10;" d="M590.904,50.51l-259.808,150l15,25.981l259.808-150L590.904,50.51z
	 M515.329,119.821c-6.327,1.376-14.343,2.122-20.795,4.939c2.003,2.2,2.291,5.926-1.01,7.557c-1.254,0.619-2.506,1.196-3.759,1.731
	c-0.204,2.344-1.798,4.673-4.764,4.951c-2.646,0.248-4.712,0.557-7.329-0.179c-0.88-0.247-1.607-0.735-2.181-1.353
	c-2.215,0.046-4.481-0.148-6.819-0.647c-4.082-0.871-5.016-7.293-1.194-9.139c4.251-2.053,8.652-3.662,13.1-5.163
	c0.232-0.363,0.521-0.718,0.888-1.056c8.332-7.66,20.595-8.979,31.206-11.286C518.955,108.812,521.615,118.455,515.329,119.821z"/>
<path style="fill:none;stroke:#000000;stroke-miterlimit:10;" d="M486.001,138.812c-0.315,0.088-0.647,0.154-1.001,0.188
	c-2.646,0.248-4.712,0.557-7.329-0.179c-0.88-0.247-1.607-0.735-2.181-1.353c-2.215,0.046-4.481-0.148-6.819-0.647
	c-4.082-0.871-5.016-7.293-1.194-9.139c3.19-1.541,6.465-2.831,9.781-4.014L406.49,1.096l-25.981,15l150,259.808l25.981-15
	L486.001,138.812z"/>
</svg>
