<?xml version="1.0" encoding="iso-8859-1"?>
<!-- Generator: Adobe Illustrator 22.0.2, SVG Export Plug-In . SVG Version: 6.00 Build 0)  -->
<svg version="1.1" id="&#x56FE;&#x5C42;_1" xmlns="http://www.w3.org/2000/svg" xmlns:xlink="http://www.w3.org/1999/xlink" x="0px"
	 y="0px" viewBox="0 0 1366 768" style="enable-background:new 0 0 1366 768;" xml:space="preserve">
<g>
	<g>
		<defs>
			<rect id="SVGID_1_" x="349.88" y="51.32" width="666" height="666"/>
		</defs>
		<clipPath id="SVGID_2_">
			<use xlink:href="#SVGID_1_"  style="overflow:visible;"/>
		</clipPath>
		<path style="clip-path:url(#SVGID_2_);" d="M682.837,716.488c-183.625,0-333.058-149.269-333.058-332.695
			c0-183.423,149.433-332.691,333.058-332.691c183.628,0,333.061,149.268,333.061,332.691
			C1015.898,567.219,866.466,716.488,682.837,716.488L682.837,716.488z M682.837,98.837
			c-157.471,0.189-285.08,127.658-285.27,284.955c0.164,157.318,127.783,284.813,285.27,285.001
			c157.497-0.188,285.126-127.677,285.316-285.001C967.964,226.479,840.329,99.001,682.837,98.837L682.837,98.837z M842.657,295.584
			c-9.34-9.222-24.393-9.144-33.638,0.169l-173.454,175.1l-76.727-78.776c-9.268-8.782-23.822-8.694-32.983,0.205
			c-9.16,8.896-9.656,23.428-1.125,32.926l93.652,96.155c0.043,0.127,0.128,0.127,0.169,0.212l0.128,0.173
			c1.497,1.492,3.379,2.391,5.129,3.329c0.9,0.554,1.666,1.365,2.609,1.75c5.714,2.378,12.141,2.394,17.868,0.046
			c0.939-0.384,1.666-1.111,2.563-1.58c1.797-1.026,3.591-1.922,5.172-3.459l0.128-0.173l0.173-0.085L842.83,329.227
			C852.061,319.882,851.986,304.835,842.657,295.584L842.657,295.584z M842.657,295.584"/>
	</g>
</g>
</svg>
