<?xml version="1.0" encoding="iso-8859-1"?>
<!-- Generator: Adobe Illustrator 22.0.2, SVG Export Plug-In . SVG Version: 6.00 Build 0)  -->
<svg version="1.1" id="&#x56FE;&#x5C42;_1" xmlns="http://www.w3.org/2000/svg" xmlns:xlink="http://www.w3.org/1999/xlink" x="0px"
	 y="0px" viewBox="0 0 1366 768" style="enable-background:new 0 0 1366 768;" xml:space="preserve">
<g>
	<g>
		<defs>
			<rect id="SVGID_1_" x="349.88" y="51.88" width="666" height="666"/>
		</defs>
		<clipPath id="SVGID_2_">
			<use xlink:href="#SVGID_1_"  style="overflow:visible;"/>
		</clipPath>
		<path style="clip-path:url(#SVGID_2_);" d="M530.011,90.571C423.117,145.683,349.88,257.02,349.88,385.366
			c0,298.866,364.333,443.487,569.987,230.068C1182.853,342.831,855.876-76.985,530.011,90.571L530.011,90.571z M905.443,320.268
			L672.785,552.922c-15.903,15.906-41.424,15.906-57.33,0L489.326,426.794c-7.767-7.768-11.835-18.125-11.835-28.849
			c0-10.357,4.068-20.714,11.835-28.853c15.904-15.903,41.427-15.903,57.331,0l97.647,97.651l203.805-203.805
			c15.906-15.906,41.427-15.906,57.334,0C921.346,278.84,921.346,304.365,905.443,320.268L905.443,320.268z M905.443,320.268"/>
	</g>
</g>
</svg>
