<?xml version="1.0" encoding="iso-8859-1"?>
<!-- Generator: Adobe Illustrator 22.0.1, SVG Export Plug-In . SVG Version: 6.00 Build 0)  -->
<svg version="1.1" id="&#x56FE;&#x5C42;_1" xmlns="http://www.w3.org/2000/svg" xmlns:xlink="http://www.w3.org/1999/xlink" x="0px"
	 y="0px" viewBox="0 0 700 700" style="enable-background:new 0 0 700 700;" xml:space="preserve">
<g>
	<path d="M660.202,496.796c-49.521-52.588-113.392-79.78-221.314-88.519c-19.472-3.187-34.155-17.21-34.155-33.862
		c0-12.198,48.155-48.699,47.811-48.971c49.699-41.761,76.336-109.616,76.336-161.783c0-81.027-80.262-146.798-179.306-146.798
		c-99.043,0-179.306,65.771-179.306,146.798c0,52.451,25.956,120.715,76.163,162.476c0,0,47.984,36.081,47.984,48.279
		c0,17.627-16.39,32.328-37.572,34.416c-105.705,9.026-168.885,36.07-217.896,87.962c-14.178,14.989-21.865,45.096-22.373,61.194
		c0.169,4.157,0,69.377,0,69.377c0,30.662,30.569,55.499,68.306,55.499h529.388c37.738,0,68.305-24.837,68.305-55.499
		c0,0-0.164-65.22,0-69.377C682.066,541.888,674.38,511.781,660.202,496.796L660.202,496.796z M660.202,496.796"/>
</g>
</svg>
