<?xml version="1.0" encoding="iso-8859-1"?>
<!-- Generator: Adobe Illustrator 22.0.1, SVG Export Plug-In . SVG Version: 6.00 Build 0)  -->
<svg version="1.1" id="&#x56FE;&#x5C42;_1" xmlns="http://www.w3.org/2000/svg" xmlns:xlink="http://www.w3.org/1999/xlink" x="0px"
	 y="0px" viewBox="0 0 700 700" style="enable-background:new 0 0 700 700;" xml:space="preserve">
<g>
	<g>
		<path d="M544.767,212.294c0,107.515-86.847,194.695-193.992,194.695c-107.149,0-193.992-87.161-193.992-194.695
			c0-107.515,86.843-194.695,193.992-194.695C457.92,17.6,544.767,104.761,544.767,212.294L544.767,212.294z M544.767,212.294"/>
		<path d="M510.884,416.149c-45.207,35.815-101.237,55.712-160.109,55.712c-59.558,0-116.126-20.353-161.539-56.859
			C69.544,459.103,16.084,613.216,16.084,683.599h666c0-69.761-53.872-222.791-171.2-267.432V416.149z M510.884,416.149"/>
	</g>
</g>
</svg>
