<?xml version="1.0" encoding="iso-8859-1"?>
<!-- Generator: Adobe Illustrator 22.0.1, SVG Export Plug-In . SVG Version: 6.00 Build 0)  -->
<svg version="1.1" id="&#x56FE;&#x5C42;_1" xmlns="http://www.w3.org/2000/svg" xmlns:xlink="http://www.w3.org/1999/xlink" x="0px"
	 y="0px" viewBox="0 0 700 700" style="enable-background:new 0 0 700 700;" xml:space="preserve">
<g>
	<g>
		<path d="M680.649,295.728l-69.626-153.14v-0.897c-1.095-2.694-2.554-4.94-4.741-6.289L356.569,19.986l-0.731-0.448l-0.728-0.448
			c-1.823-1.348-3.646-1.796-5.469-1.796c-1.822,0-4.009,0.448-5.468,1.796l-0.728,0.448l-0.731,0.448L93.729,135.854
			c-2.551,1.794-5.102,4.488-6.561,7.634L17.539,297.525c-2.917,8.082,0,17.513,6.197,21.556l56.505,34.578l5.832,3.595v178.739
			c0,6.289,2.554,11.677,7.292,14.82l249.349,130.687c2.187,1.345,4.377,1.794,6.563,1.794c2.187,0,4.374-0.448,6.561-1.794
			l247.893-131.135h0.728c5.105-2.246,8.384-8.086,8.384-14.823V355.905l5.471-3.591l54.682-34.581l2.187-1.345h2.187
			C682.471,311.447,683.93,302.912,680.649,295.728L680.649,295.728z M646.383,284.951l5.105,11.677l-222.739,137.42l-3.282,1.797
			l-1.823-3.595l-53.589-120.355l-1.823-4.043l3.281-2.246l221.281-137.42l1.459,3.143L646.383,284.951z M561.443,145.282
			l9.843,4.042L368.599,275.968l-5.105,3.143V61.302l3.646,1.349l194.303,82.635V145.282z M332.871,62.651l8.751-3.595v217.36
			h-4.374l-1.095-0.897L130.915,147.979l6.925-3.145L332.871,62.651z M104.302,172.229l3.282-7.633l224.923,140.562l3.282,2.246
			l-1.823,4.043l-53.953,119.906l-1.823,3.591l-3.279-1.794L49.254,293.934l4.01-8.983L104.302,172.229z M119.614,530.604
			l-6.564-3.145V364.888l0.364,0.452l164.412,101.044c1.823,0.897,3.646,1.797,5.469,1.797c4.009,0,7.655-2.694,9.842-6.737
			l41.557-90.268l6.928-14.82v286.969l-9.115-4.491L119.614,530.604z M586.597,518.928v8.531l-6.197,3.145l-212.896,108.23
			l-4.01,2.246V356.357l6.927,14.82l41.921,90.716c1.823,4.039,5.469,6.285,9.115,6.285c1.823,0,3.646-0.448,5.469-1.794
			l160.035-98.802v151.346H586.597z M586.597,518.928"/>
	</g>
</g>
</svg>
