<?xml version="1.0" encoding="iso-8859-1"?>
<!-- Generator: Adobe Illustrator 22.0.2, SVG Export Plug-In . SVG Version: 6.00 Build 0)  -->
<svg version="1.1" id="&#x56FE;&#x5C42;_1" xmlns="http://www.w3.org/2000/svg" xmlns:xlink="http://www.w3.org/1999/xlink" x="0px"
	 y="0px" viewBox="0 0 1366 768" style="enable-background:new 0 0 1366 768;" xml:space="preserve">
<g>
	<g>
		<defs>
			<rect id="SVGID_1_" x="349.88" y="51.36" width="666" height="666"/>
		</defs>
		<clipPath id="SVGID_2_">
			<use xlink:href="#SVGID_1_"  style="overflow:visible;"/>
		</clipPath>
		<path style="clip-path:url(#SVGID_2_);" d="M1002.465,216.203L847.738,64.528c-17.021-16.74-44.769-16.74-61.835,0
			L399.165,443.629c-14.504,36.948-40.556,195.207-49.285,254.913c6.557,6.444,10.164,14.42,18.369,18.035
			c57.621-8.579,226.415-53.222,247.518-60.685l386.697-379.054c17.065-16.777,17.065-43.949,0-60.634V216.203z M414.623,671.053
			l-15.458-15.159l13.292-77.972l75.123,73.662L414.623,671.053z M584.807,625.533l-48.59,13.07L421.316,525.955l8.815-52.007
			l309.355-303.271l30.96,30.319L476.552,489.107l30.915,30.315l293.898-288.104l30.919,30.315L600.271,489.107l30.96,30.311
			L863.25,291.996l30.918,30.319L584.814,625.53L584.807,625.533z M925.125,291.999L770.446,140.366l46.376-45.52l154.679,151.675
			L925.125,291.999z M925.125,291.999"/>
	</g>
</g>
</svg>
