<?xml version="1.0" encoding="iso-8859-1"?>
<!-- Generator: Adobe Illustrator 22.0.2, SVG Export Plug-In . SVG Version: 6.00 Build 0)  -->
<svg version="1.1" id="&#x56FE;&#x5C42;_1" xmlns="http://www.w3.org/2000/svg" xmlns:xlink="http://www.w3.org/1999/xlink" x="0px"
	 y="0px" viewBox="0 0 1366 768" style="enable-background:new 0 0 1366 768;" xml:space="preserve">
<g>
	<path d="M926.321,717.125H437.929c-49.042,0-88.804-39.747-88.804-88.804V139.929c0-49.043,39.762-88.804,88.804-88.804h321.893
		c6.127,0,11.107,4.965,11.107,11.096v22.2c0,6.143-4.98,11.108-11.107,11.108H460.129c-36.784,0-66.604,29.816-66.604,66.6v443.993
		c0,36.786,29.82,66.604,66.604,66.604h443.993c36.787,0,66.604-29.817,66.604-66.604V306.428c0-6.128,4.977-11.107,11.107-11.107
		h22.2c6.128,0,11.093,4.979,11.093,11.107v321.893C1015.125,677.378,975.363,717.125,926.321,717.125L926.321,717.125z
		 M965.455,188.669l-92.266-87.1l28.015-28.132c21.666-21.735,57.288-22.312,79.585-1.261l11.533,10.879
		c22.29,21.052,22.802,55.747,1.14,77.496L965.455,188.669z M525.843,450.365l92.254,87.104l-135.768,46.452L525.843,450.365z
		 M943.044,211.184L640.5,514.968l-92.257-87.104L850.79,124.085L943.044,211.184z M943.044,211.184"/>
</g>
</svg>
