<?xml version="1.0" encoding="iso-8859-1"?>
<!-- Generator: Adobe Illustrator 22.0.1, SVG Export Plug-In . SVG Version: 6.00 Build 0)  -->
<svg version="1.1" id="&#x56FE;&#x5C42;_1" xmlns="http://www.w3.org/2000/svg" xmlns:xlink="http://www.w3.org/1999/xlink" x="0px"
	 y="0px" viewBox="0 0 700 700" style="enable-background:new 0 0 700 700;" xml:space="preserve">
<g>
	<g>
		<defs>
			<rect id="SVGID_1_" x="16.94" y="17.44" width="666" height="666"/>
		</defs>
		<clipPath id="SVGID_2_">
			<use xlink:href="#SVGID_1_"  style="overflow:visible;"/>
		</clipPath>
		<path style="clip-path:url(#SVGID_2_);" d="M40.995,139.44h66.169c13.344,0,24.166-13.634,24.166-30.505V48.972
			c0-16.87-10.822-30.518-24.166-30.518H40.995c-13.371,0-24.167,13.648-24.167,30.518v59.963
			C16.828,125.806,27.625,139.44,40.995,139.44L40.995,139.44z M107.211,286.715H41.038c-13.413,0-24.162,13.648-24.162,30.518
			v59.968c0,16.838,10.749,30.486,24.162,30.486h66.173c13.297,0,24.163-13.648,24.163-30.486v-59.968
			C131.378,300.368,120.508,286.715,107.211,286.715L107.211,286.715z M107.211,558.137H41.038
			c-13.413,0-24.162,13.662-24.162,30.518v63.14c0,16.851,10.749,30.518,24.162,30.518h66.173c13.297,0,24.163-13.667,24.163-30.518
			v-63.14C131.378,571.804,120.508,558.137,107.211,558.137L107.211,558.137z M228.71,139.44h429.907
			c13.323,0,24.188-13.634,24.188-30.505V48.972c0-16.87-10.865-30.518-24.188-30.518H228.71c-13.392,0-24.141,13.648-24.141,30.518
			v59.963C204.569,125.806,215.318,139.44,228.71,139.44L228.71,139.44z M658.617,286.715H228.71
			c-13.345,0-24.141,13.648-24.141,30.518v59.968c0,16.838,10.796,30.486,24.141,30.486h429.907
			c13.388,0,24.188-13.648,24.188-30.486v-59.968C682.805,300.368,672.009,286.715,658.617,286.715L658.617,286.715z
			 M658.617,558.137H228.71c-13.345,0-24.141,13.662-24.141,30.518v63.14c0,16.851,10.796,30.518,24.141,30.518h429.907
			c13.388,0,24.188-13.667,24.188-30.518v-63.14C682.805,571.804,672.009,558.137,658.617,558.137L658.617,558.137z
			 M658.617,558.137"/>
	</g>
</g>
</svg>
