<?xml version="1.0" encoding="iso-8859-1"?>
<!-- Generator: Adobe Illustrator 22.0.1, SVG Export Plug-In . SVG Version: 6.00 Build 0)  -->
<svg version="1.1" id="&#x56FE;&#x5C42;_1" xmlns="http://www.w3.org/2000/svg" xmlns:xlink="http://www.w3.org/1999/xlink" x="0px"
	 y="0px" viewBox="0 0 700 700" style="enable-background:new 0 0 700 700;" xml:space="preserve">
<g>
	<g>
		<defs>
			<rect id="SVGID_1_" x="16.94" y="17.44" width="666" height="666"/>
		</defs>
		<clipPath id="SVGID_2_">
			<use xlink:href="#SVGID_1_"  style="overflow:visible;"/>
		</clipPath>
		<path style="clip-path:url(#SVGID_2_);" d="M350.887,17.716h286.914c32.973,0,44.282,12.749,44.282,50.144
			c0,187.921,0,375.921-0.073,563.841c0,37.907-11.015,50.655-43.762,50.655c-192.911,0.083-385.899,0.083-578.81,0
			c-30.516,0-42.497-13.346-42.497-48.277c-0.149-189.872-0.149-379.748,0-569.532c0-33.657,12.054-46.746,42.05-46.833
			C156.264,17.632,253.541,17.716,350.887,17.716L350.887,17.716z M225.555,504.807H60.332V632.89h165.223V504.807z
			 M431.716,633.657V505.401H267.383v128.256H431.716z M473.319,632.636h165.375V505.06H473.319V632.636z M60.554,332.868v126.979
			h164.482V332.868H60.554z M473.171,461.547c53.885,0,105.907,0.17,157.933-0.427c2.827,0,7.963-5.606,7.963-8.752
			c0.519-39.691,0.37-79.299,0.37-118.819H473.097C473.171,376.385,473.171,417.437,473.171,461.547L473.171,461.547z
			 M266.639,460.016h165.299V333.462H266.639V460.016z M225.185,289.268V161.609H59.289c0,39.774-0.375,77.767,0.447,115.674
			c0.073,4.08,6.846,11.388,10.568,11.475C121.359,289.521,172.49,289.268,225.185,289.268L225.185,289.268z M267.085,287.483
			h164.482V161.099H267.085V287.483z M638.321,288.077V161.012H473.545v127.065H638.321z M638.321,288.077"/>
	</g>
</g>
</svg>
