<?xml version="1.0" encoding="iso-8859-1"?>
<!-- Generator: Adobe Illustrator 22.0.2, SVG Export Plug-In . SVG Version: 6.00 Build 0)  -->
<svg version="1.1" id="&#x56FE;&#x5C42;_1" xmlns="http://www.w3.org/2000/svg" xmlns:xlink="http://www.w3.org/1999/xlink" x="0px"
	 y="0px" viewBox="0 0 1366 768" style="enable-background:new 0 0 1366 768;" xml:space="preserve">
<g>
	<path d="M683,51c-183.149,0-333,149.851-333,333s149.851,333,333,333s333-149.851,333-333S866.149,51,683,51L683,51z M683,592.125
		c-20.813,0-41.625-20.813-41.625-41.625s20.813-41.625,41.625-41.625s41.625,20.813,41.625,41.625S703.813,592.125,683,592.125
		L683,592.125z M691.327,442.274c0,12.49-16.653,12.49-20.813,0L641.375,217.5c0,0,8.327-37.462,41.625-41.625
		c33.298,0,41.625,41.625,41.625,41.625L691.327,442.274z M691.327,442.274"/>
</g>
</svg>
