<?xml version="1.0" encoding="iso-8859-1"?>
<!-- Generator: Adobe Illustrator 22.0.1, SVG Export Plug-In . SVG Version: 6.00 Build 0)  -->
<svg version="1.1" id="&#x56FE;&#x5C42;_1" xmlns="http://www.w3.org/2000/svg" xmlns:xlink="http://www.w3.org/1999/xlink" x="0px"
	 y="0px" viewBox="0 0 700 700" style="enable-background:new 0 0 700 700;" xml:space="preserve">
<g>
	<g>
		<defs>
			<rect id="SVGID_1_" x="16.4" y="17.88" width="666" height="666"/>
		</defs>
		<clipPath id="SVGID_2_">
			<use xlink:href="#SVGID_1_"  style="overflow:visible;"/>
		</clipPath>
		<path style="clip-path:url(#SVGID_2_);" d="M648.521,279.008h-58.554c-5.357-11.849-13.395-36.693-23.347-54.272l41.333-40.13
			c13.012-12.994,13.012-33.635,0-46.629l-47.075-46.625c-13.011-12.994-34.06-12.994-47.071,0l-39.038,41.274
			c-17.603-9.936-42.48-17.579-54.341-23.312V51.222c0-18.348-19.519-33.252-37.889-33.252h-66.973
			c-18.373,0-37.889,14.904-37.889,33.252v58.475c-11.865,5.35-36.742,13.377-54.345,23.312l-39.801-41.274
			c-13.012-12.998-33.68-12.998-46.692,0l-47.07,47.008c-13.012,12.993-13.012,34.014,0,47.008l41.713,38.985
			c-9.949,17.579-17.603,42.423-23.344,54.272H49.585c-18.373,0-33.297,19.489-33.297,37.838v66.5
			c0,18.345,14.924,37.838,33.297,37.838h58.553c5.358,11.846,13.395,36.689,23.344,54.272l-41.33,40.13
			c-13.015,12.994-13.015,33.631,0,46.625l47.071,47.011c13.011,12.994,34.06,12.994,47.07,0l39.039-41.278
			c17.603,9.936,42.48,17.583,54.345,23.312v58.478c0,18.344,19.516,33.249,37.889,33.249h66.59
			c18.369,0,37.889-14.904,37.889-33.249v-58.478c11.861-5.35,36.738-13.376,54.345-23.312l40.184,41.278
			c13.012,12.994,33.677,12.994,46.688,0l47.074-47.011c13.012-12.994,13.012-34.015,0-47.008l-41.333-38.986
			c9.949-17.578,17.607-42.422,23.344-54.272h58.557c18.369,0,33.293-19.488,33.293-37.834v-67.265
			C681.814,298.497,666.89,279.008,648.521,279.008L648.521,279.008z M349.243,457.107c-59.321,0-107.158-47.773-107.158-107.014
			c0-59.24,47.837-107.013,107.158-107.013c59.32,0,107.157,47.773,107.157,107.013C456.4,409.334,408.18,457.107,349.243,457.107
			L349.243,457.107z M349.243,457.107"/>
	</g>
</g>
</svg>
