<?xml version="1.0" encoding="iso-8859-1"?>
<!-- Generator: Adobe Illustrator 22.0.2, SVG Export Plug-In . SVG Version: 6.00 Build 0)  -->
<svg version="1.1" id="&#x56FE;&#x5C42;_1" xmlns="http://www.w3.org/2000/svg" xmlns:xlink="http://www.w3.org/1999/xlink" x="0px"
	 y="0px" viewBox="0 0 1366 768" style="enable-background:new 0 0 1366 768;" xml:space="preserve">
<g>
	<g>
		<defs>
			<rect id="SVGID_1_" x="349.92" y="51.36" width="666" height="666"/>
		</defs>
		<clipPath id="SVGID_2_">
			<use xlink:href="#SVGID_1_"  style="overflow:visible;"/>
		</clipPath>
		<path style="clip-path:url(#SVGID_2_);" d="M682.57,716.548c-183.474,0-332.747-149.1-332.747-332.391
			c0-183.262,149.273-332.375,332.747-332.375c183.472,0,332.748,149.113,332.748,332.391
			C1015.318,567.435,866.029,716.548,682.57,716.548L682.57,716.548z M682.57,99.263c-157.263,0-285.199,127.802-285.199,284.894
			c0,157.095,127.937,284.894,285.199,284.894c157.263,0,285.2-127.799,285.2-284.894C967.77,227.066,839.833,99.263,682.57,99.263
			L682.57,99.263z M801.783,347.561c-6.27,12.864-15.12,28.906-35.527,48.09c-20.394,19.213-33.938,15.837-40.611,23.917
			c-6.661,8.13-11.713,17.827-15.162,29.099c-3.418,11.288-2.327,6.267-2.327,12.201h-51.2c0-7.513-2.535-6.653,1.092-19.919
			c3.643-13.25,9.085-24.826,16.367-34.729c7.283-9.89,20.407-7.373,39.406-26.582c18.995-19.213,31.222-33.141,36.664-41.855
			c5.467-8.714,8.184-21.672,8.184-38.894c0-17.232-6.274-32.459-18.776-45.725c-12.531-13.25-30.723-19.888-54.567-19.888
			c-53.736,0-79.56,28.713-79.56,91.245h-51.2c0.816-28.494,2.326-47.596,8.378-62.434c6.076-14.841,14.495-28.091,27.813-39.766
			c13.35-11.674,28.191-20.277,44.543-25.838c16.38-5.544,33.661-8.323,51.826-8.323c36.774,0,66.753,12.473,91.205,33.664
			c22.734,19.694,32.19,48.975,32.19,82.723C810.547,320.341,808.057,334.698,801.783,347.561L801.783,347.561z M708.172,563.134
			h-68.263v-68.187h68.263V563.134z M708.172,563.134"/>
	</g>
</g>
</svg>
