<?xml version="1.0" encoding="iso-8859-1"?>
<!-- Generator: Adobe Illustrator 22.0.1, SVG Export Plug-In . SVG Version: 6.00 Build 0)  -->
<svg version="1.1" id="&#x56FE;&#x5C42;_1" xmlns="http://www.w3.org/2000/svg" xmlns:xlink="http://www.w3.org/1999/xlink" x="0px"
	 y="0px" viewBox="0 0 700 700" style="enable-background:new 0 0 700 700;" xml:space="preserve">
<g>
	<g>
		<path d="M152.696,199.103c-9.084,0-15.137,6.053-15.137,15.137c0,9.08,6.052,15.136,15.137,15.136
			c9.08,0,15.136-6.056,15.136-15.136C167.832,205.156,161.776,199.103,152.696,199.103L152.696,199.103z M92.148,199.103
			c-9.08,0-15.136,6.053-15.136,15.137c0,9.08,6.056,15.136,15.136,15.136c9.084,0,15.136-6.056,15.136-15.136
			C107.283,205.156,101.231,199.103,92.148,199.103L92.148,199.103z M485.693,199.103H273.785c-9.08,0-15.137,6.053-15.137,15.137
			c0,9.08,6.057,15.136,15.137,15.136h211.909c9.085,0,15.137-6.056,15.137-15.136C500.83,205.156,494.778,199.103,485.693,199.103
			L485.693,199.103z M621.922,17.466H198.104c-33.3,0-60.545,27.244-60.545,60.544v15.137c0,9.084,6.052,15.136,15.137,15.136
			c9.08,0,15.136-6.052,15.136-15.136V78.01c0-16.65,13.622-30.272,30.272-30.272h423.818c16.65,0,30.272,13.623,30.272,30.272
			v423.819c0,16.651-13.623,30.272-30.272,30.272h-15.136c-9.084,0-15.137,6.056-15.137,15.137c0,9.084,6.052,15.136,15.137,15.136
			h15.136c33.3,0,60.545-27.245,60.545-60.545V78.01C682.467,44.71,655.222,17.466,621.922,17.466L621.922,17.466z M213.24,199.103
			c-9.084,0-15.136,6.053-15.136,15.137c0,9.08,6.052,15.136,15.136,15.136c9.08,0,15.137-6.056,15.137-15.136
			C228.377,205.156,222.32,199.103,213.24,199.103L213.24,199.103z M500.83,138.559H77.012c-33.3,0-60.545,27.245-60.545,60.544
			v423.82c0,33.299,27.245,60.544,60.545,60.544H500.83c33.3,0,60.544-27.245,60.544-60.544v-423.82
			C561.374,165.803,534.13,138.559,500.83,138.559L500.83,138.559z M531.102,622.922c0,16.65-13.623,30.272-30.272,30.272H77.012
			c-16.651,0-30.272-13.622-30.272-30.272V289.92h484.363V622.922z M531.102,259.648H46.739v-60.545
			c0-16.65,13.622-30.272,30.272-30.272H500.83c16.65,0,30.272,13.622,30.272,30.272V259.648z M531.102,259.648"/>
	</g>
</g>
</svg>
