<?xml version="1.0" encoding="iso-8859-1"?>
<!-- Generator: Adobe Illustrator 22.0.1, SVG Export Plug-In . SVG Version: 6.00 Build 0)  -->
<svg version="1.1" id="&#x56FE;&#x5C42;_1" xmlns="http://www.w3.org/2000/svg" xmlns:xlink="http://www.w3.org/1999/xlink" x="0px"
	 y="0px" viewBox="0 0 700 700" style="enable-background:new 0 0 700 700;" xml:space="preserve">
<g>
	<g>
		<defs>
			<rect id="SVGID_1_" x="16.44" y="17.4" width="666" height="666"/>
		</defs>
		<clipPath id="SVGID_2_">
			<use xlink:href="#SVGID_1_"  style="overflow:visible;"/>
		</clipPath>
		<path style="clip-path:url(#SVGID_2_);" d="M582.427,371.92c0,38.302-2.163,44.84-9.199,66.225
			c-28.352,69.437-85.386,119.297-152.582,133.388c-49.001,9.869-93.59,3.67-136.18-19.067
			c-47.045-23.792-84.676-67.327-100.832-116.218l-0.499-1.686c-6.827-23.116-8.868-30.12-8.868-65.091
			c0-50.916,7.33-76.522,32.85-114.15c20.317-32.058,45.628-53.994,82.264-71.29c28.311-15.312,54.037-21.936,87.593-21.936
			c5.703,0,11.616,0.212,17.862,0.551c34.511,2.53,52.874,7.888,82.14,23.789c44.547,23.752,79.601,66.189,96.171,116.766
			C582.427,326.656,582.427,332.647,582.427,371.92L582.427,371.92z M682.469,639.363l-2.956-1.478
			c-1.579-0.841-10.114-7.212-53.871-55.006l-47.46-48.088l14.239-20.671c31.848-47.162,44.382-94.112,41.925-157.007
			c-2.498-68.93-24.565-119.676-73.857-169.707c-33.097-33.494-63.281-52.897-102.081-65.132
			c-23.731-7.256-31.682-9.701-77.644-9.701c-45.795,0-54.037,0-78.727,9.995c-37.676,11.941-67.861,31.302-100.957,64.838
			c-33.016,33.453-52.164,64.037-63.99,102.339l-0.415,1.392c-7.077,23.96-9.45,32.017-9.45,78.334c0,46.403,0,54.798,9.865,79.729
			c11.782,38.258,30.974,68.887,63.99,102.377c34.969,35.436,57.037,49.948,98.46,64.796c29.766,10.04,32.681,10.04,81.183,10.04
			c45.668,0,51.54,0,81.016-9.999c17.569-5.061,42.047-17.463,59.326-29.993l25.186-16.998l45.047,45.558
			c45.711,46.317,52.039,52.138,55.704,52.814c2.484,0.917,5.1,1.43,7.742,1.519c4.874,0,9.284-2.404,16.78-8.142
			c5.369-5.526,10.992-11.264,10.992-18.349l-0.044-3.419V639.363z M65.857,559.891v-417.45c0-39.992,32.058-72.555,71.607-72.555
			h387.805c37.467,0,71.607,19.488,71.607,40.832v71.458h51.874v-71.416c0-52.349-53.207-93.393-121.149-93.393H137.548
			C70.697,17.412,16.507,72.3,16.44,140.037v419.809c0.067,67.727,54.227,122.62,121.068,122.713H251.37V632.36H137.464
			c-38.841,0-71.607-33.197-71.607-72.555V559.891z M65.857,559.891"/>
	</g>
</g>
</svg>
